<svg id="visual" viewBox="0 0 900 600" xmlns="http://www.w3.org/2000/svg" xmlns:xlink="http://www.w3.org/1999/xlink" version="1.1"><rect x="0" y="0" width="900" height="600" fill="#220038"></rect><path d="M430 600L399 600L399 533L396 533L396 467L421 467L421 400L436 400L436 333L408 333L408 267L410 267L410 200L381 200L381 133L415 133L415 67L402 67L402 0L900 0L900 67L900 67L900 133L900 133L900 200L900 200L900 267L900 267L900 333L900 333L900 400L900 400L900 467L900 467L900 533L900 533L900 600L900 600Z" fill="#560090"></path><path d="M474 600L450 600L450 533L520 533L520 467L477 467L477 400L457 400L457 333L469 333L469 267L485 267L485 200L495 200L495 133L491 133L491 67L471 67L471 0L900 0L900 67L900 67L900 133L900 133L900 200L900 200L900 267L900 267L900 333L900 333L900 400L900 400L900 467L900 467L900 533L900 533L900 600L900 600Z" fill="#453aaf"></path><path d="M541 600L533 600L533 533L508 533L508 467L501 467L501 400L558 400L558 333L531 333L531 267L502 267L502 200L569 200L569 133L577 133L577 67L560 67L560 0L900 0L900 67L900 67L900 133L900 133L900 200L900 200L900 267L900 267L900 333L900 333L900 400L900 400L900 467L900 467L900 533L900 533L900 600L900 600Z" fill="#2c5cc8"></path><path d="M583 600L602 600L602 533L579 533L579 467L609 467L609 400L583 400L583 333L618 333L618 267L603 267L603 200L642 200L642 133L623 133L623 67L613 67L613 0L900 0L900 67L900 67L900 133L900 133L900 200L900 200L900 267L900 267L900 333L900 333L900 400L900 400L900 467L900 467L900 533L900 533L900 600L900 600Z" fill="#097adb"></path><path d="M686 600L639 600L639 533L630 533L630 467L640 467L640 400L681 400L681 333L622 333L622 267L687 267L687 200L660 200L660 133L659 133L659 67L702 67L702 0L900 0L900 67L900 67L900 133L900 133L900 200L900 200L900 267L900 267L900 333L900 333L900 400L900 400L900 467L900 467L900 533L900 533L900 600L900 600Z" fill="#0096e8"></path><path d="M752 600L713 600L713 533L730 533L730 467L707 467L707 400L689 400L689 333L740 333L740 267L693 267L693 200L699 200L699 133L679 133L679 67L690 67L690 0L900 0L900 67L900 67L900 133L900 133L900 200L900 200L900 267L900 267L900 333L900 333L900 400L900 400L900 467L900 467L900 533L900 533L900 600L900 600Z" fill="#00afec"></path><path d="M760 600L757 600L757 533L802 533L802 467L770 467L770 400L740 400L740 333L792 333L792 267L814 267L814 200L793 200L793 133L823 133L823 67L804 67L804 0L900 0L900 67L900 67L900 133L900 133L900 200L900 200L900 267L900 267L900 333L900 333L900 400L900 400L900 467L900 467L900 533L900 533L900 600L900 600Z" fill="#00c6e7"></path><path d="M822 600L875 600L875 533L868 533L868 467L837 467L837 400L869 400L869 333L831 333L831 267L869 267L869 200L851 200L851 133L850 133L850 67L836 67L836 0L900 0L900 67L900 67L900 133L900 133L900 200L900 200L900 267L900 267L900 333L900 333L900 400L900 400L900 467L900 467L900 533L900 533L900 600L900 600Z" fill="#0cdadd"></path></svg>
